# Blender v2.81 (sub 16) OBJ File: ''
# www.blender.org
mtllib Player.mtl
o Cube
v 1.000000 -1.000000 1.000000
v 1.000000 -1.000000 -1.000000
v -1.000000 -1.000000 1.000000
v -1.000000 -1.000000 -1.000000
v 1.000000 1.000000 1.000000
v 1.000000 1.000000 -1.000000
v -1.000000 1.000000 1.000000
v -1.000000 1.000000 -1.000000
v -3.376373 0.571026 -0.571026
v -3.376373 0.571026 0.571026
v -3.376373 -0.571026 0.571026
v -3.376373 -0.571026 -0.571026
v 0.571026 3.376373 -0.571026
v -0.571026 3.376373 -0.571026
v -0.571026 3.376373 0.571026
v 0.571026 3.376373 0.571026
v 3.376373 -0.571026 -0.571026
v 3.376373 0.571026 -0.571026
v 3.376373 -0.571026 0.571026
v 3.376373 0.571026 0.571026
v 0.571026 -3.376373 0.571026
v 0.571026 -3.376373 -0.571026
v -0.571026 -3.376373 0.571026
v -0.571026 -3.376373 -0.571026
v -0.571026 -0.571026 3.376373
v -0.571026 0.571026 3.376373
v 0.571026 -0.571026 3.376373
v 0.571026 0.571026 3.376373
v 0.571026 0.571026 -3.376373
v -0.571026 0.571026 -3.376373
v 0.571026 -0.571026 -3.376373
v -0.571026 -0.571026 -3.376373
v -3.000000 1.000000 -1.000000
v -3.000000 1.000000 1.000000
v -3.000000 -1.000000 1.000000
v -3.000000 -1.000000 -1.000000
v 1.000000 3.000000 -1.000000
v -1.000000 3.000000 -1.000000
v -1.000000 3.000000 1.000000
v 1.000000 3.000000 1.000000
v 3.000000 -1.000000 -1.000000
v 3.000000 1.000000 -1.000000
v 3.000000 -1.000000 1.000000
v 3.000000 1.000000 1.000000
v 1.000000 -3.000000 1.000000
v 1.000000 -3.000000 -1.000000
v -1.000000 -3.000000 1.000000
v -1.000000 -3.000000 -1.000000
v -1.000000 -1.000000 3.000000
v -1.000000 1.000000 3.000000
v 1.000000 -1.000000 3.000000
v 1.000000 1.000000 3.000000
v 1.000000 1.000000 -3.000000
v -1.000000 1.000000 -3.000000
v 1.000000 -1.000000 -3.000000
v -1.000000 -1.000000 -3.000000
vt 0.875000 0.500000
vt 0.625000 0.500000
vt 0.625000 0.500000
vt 0.375000 0.750000
vt 0.125000 0.750000
vt 0.125000 0.750000
vt 0.125000 0.500000
vt 0.125000 0.500000
vt 0.375000 0.750000
vt 0.625000 0.750000
vt 0.625000 0.750000
vt 0.875000 0.500000
vt 0.571378 0.803622
vt 0.428622 0.946378
vt 0.428622 0.803622
vt 0.875000 0.750000
vt 0.625000 0.750000
vt 0.375000 0.750000
vt 0.375000 0.000000
vt 0.625000 0.000000
vt 0.625000 0.000000
vt 0.571378 0.053622
vt 0.428622 0.196378
vt 0.428622 0.053622
vt 0.875000 0.750000
vt 0.375000 0.250000
vt 0.625000 0.250000
vt 0.625000 0.250000
vt 0.375000 0.000000
vt 0.571378 0.303622
vt 0.428622 0.446378
vt 0.428622 0.303622
vt 0.375000 0.500000
vt 0.625000 0.500000
vt 0.375000 0.250000
vt 0.375000 0.500000
vt 0.571378 0.553622
vt 0.428622 0.696378
vt 0.428622 0.553622
vt 0.375000 0.500000
vt 0.375000 0.750000
vt 0.625000 0.500000
vt 0.821378 0.553622
vt 0.678622 0.696378
vt 0.678622 0.553622
vt 0.875000 0.750000
vt 0.875000 0.500000
vt 0.625000 0.750000
vt 0.321378 0.553622
vt 0.178622 0.696378
vt 0.178622 0.553622
vt 0.125000 0.750000
vt 0.375000 0.500000
vt 0.125000 0.500000
vt 0.571378 0.946378
vt 0.375000 1.000000
vt 0.625000 1.000000
vt 0.625000 0.000000
vt 0.571378 0.196378
vt 0.375000 0.250000
vt 0.571378 0.446378
vt 0.625000 0.250000
vt 0.571378 0.696378
vt 0.821378 0.696378
vt 0.321378 0.696378
vt 0.125000 0.750000
vt 0.875000 0.750000
vt 0.375000 0.000000
vt 0.875000 0.500000
vt 0.125000 0.500000
vn 1.0000 0.0000 0.0000
vn 0.0000 0.0000 -1.0000
vn -1.0000 0.0000 0.0000
vn 0.0000 0.0000 1.0000
vn 0.0000 -1.0000 0.0000
vn 0.0000 1.0000 0.0000
vn -0.7517 0.6595 0.0000
vn -0.7517 -0.6595 0.0000
vn -0.7517 0.0000 0.6595
vn -0.7517 0.0000 -0.6595
vn 0.0000 0.7517 -0.6595
vn -0.6595 0.7517 0.0000
vn 0.6595 0.7517 0.0000
vn 0.0000 0.7517 0.6595
vn 0.7517 0.0000 -0.6595
vn 0.7517 -0.6595 0.0000
vn 0.7517 0.6595 0.0000
vn 0.7517 0.0000 0.6595
vn 0.6595 -0.7517 0.0000
vn -0.6595 -0.7517 0.0000
vn 0.0000 -0.7517 0.6595
vn 0.0000 -0.7517 -0.6595
vn -0.6595 0.0000 0.7517
vn 0.0000 -0.6595 0.7517
vn 0.0000 0.6595 0.7517
vn 0.6595 0.0000 0.7517
vn 0.0000 0.6595 -0.7517
vn 0.6595 0.0000 -0.7517
vn -0.6595 0.0000 -0.7517
vn 0.0000 -0.6595 -0.7517
usemtl Material
s off
f 5/1/1 51/2/1 1/3/1
f 4/4/2 33/5/2 8/6/2
f 8/6/2 37/7/2 6/8/2
f 8/6/3 56/9/3 4/4/3
f 4/4/3 47/10/3 3/11/3
f 1/3/4 44/12/4 5/1/4
f 11/13/3 9/14/3 12/15/3
f 7/16/4 35/17/4 3/11/4
f 3/11/5 36/18/5 4/4/5
f 8/19/6 34/20/6 7/21/6
f 15/22/6 13/23/6 14/24/6
f 5/1/4 39/25/4 7/16/4
f 6/26/1 40/27/1 5/28/1
f 7/21/3 38/29/3 8/19/3
f 20/30/1 17/31/1 18/32/1
f 2/33/5 43/34/5 1/3/5
f 5/28/6 42/35/6 6/26/6
f 6/8/2 41/36/2 2/33/2
f 21/37/5 24/38/5 22/39/5
f 1/3/1 46/40/1 2/33/1
f 2/33/2 48/41/2 4/4/2
f 3/11/4 45/42/4 1/3/4
f 28/43/4 25/44/4 27/45/4
f 3/11/3 50/46/3 7/16/3
f 7/16/6 52/47/6 5/1/6
f 1/3/5 49/48/5 3/11/5
f 31/49/2 30/50/2 29/51/2
f 6/8/6 54/52/6 8/6/6
f 4/4/5 55/53/5 2/33/5
f 2/33/1 53/54/1 6/8/1
f 10/55/7 33/56/7 9/14/7
f 12/15/8 35/17/8 11/13/8
f 11/13/9 34/57/9 10/55/9
f 9/14/10 36/18/10 12/15/10
f 13/23/11 38/29/11 14/24/11
f 14/24/12 39/58/12 15/22/12
f 16/59/13 37/60/13 13/23/13
f 15/22/14 40/27/14 16/59/14
f 17/31/15 42/35/15 18/32/15
f 19/61/16 41/36/16 17/31/16
f 18/32/17 44/62/17 20/30/17
f 20/30/18 43/34/18 19/61/18
f 22/39/19 45/42/19 21/37/19
f 23/63/20 48/41/20 24/38/20
f 21/37/21 47/10/21 23/63/21
f 24/38/22 46/40/22 22/39/22
f 26/64/23 49/48/23 25/44/23
f 25/44/24 51/2/24 27/45/24
f 28/43/25 50/46/25 26/64/25
f 27/45/26 52/47/26 28/43/26
f 30/50/27 53/54/27 29/51/27
f 29/51/28 55/53/28 31/49/28
f 32/65/29 54/52/29 30/50/29
f 31/49/30 56/9/30 32/65/30
f 5/1/1 52/47/1 51/2/1
f 4/4/2 36/18/2 33/5/2
f 8/6/2 38/66/2 37/7/2
f 8/6/3 54/52/3 56/9/3
f 4/4/3 48/41/3 47/10/3
f 1/3/4 43/34/4 44/12/4
f 11/13/3 10/55/3 9/14/3
f 7/16/4 34/67/4 35/17/4
f 3/11/5 35/17/5 36/18/5
f 8/19/6 33/68/6 34/20/6
f 15/22/6 16/59/6 13/23/6
f 5/1/4 40/69/4 39/25/4
f 6/26/1 37/60/1 40/27/1
f 7/21/3 39/58/3 38/29/3
f 20/30/1 19/61/1 17/31/1
f 2/33/5 41/36/5 43/34/5
f 5/28/6 44/62/6 42/35/6
f 6/8/2 42/70/2 41/36/2
f 21/37/5 23/63/5 24/38/5
f 1/3/1 45/42/1 46/40/1
f 2/33/2 46/40/2 48/41/2
f 3/11/4 47/10/4 45/42/4
f 28/43/4 26/64/4 25/44/4
f 3/11/3 49/48/3 50/46/3
f 7/16/6 50/46/6 52/47/6
f 1/3/5 51/2/5 49/48/5
f 31/49/2 32/65/2 30/50/2
f 6/8/6 53/54/6 54/52/6
f 4/4/5 56/9/5 55/53/5
f 2/33/1 55/53/1 53/54/1
f 10/55/7 34/57/7 33/56/7
f 12/15/8 36/18/8 35/17/8
f 11/13/9 35/17/9 34/57/9
f 9/14/10 33/56/10 36/18/10
f 13/23/11 37/60/11 38/29/11
f 14/24/12 38/29/12 39/58/12
f 16/59/13 40/27/13 37/60/13
f 15/22/14 39/58/14 40/27/14
f 17/31/15 41/36/15 42/35/15
f 19/61/16 43/34/16 41/36/16
f 18/32/17 42/35/17 44/62/17
f 20/30/18 44/62/18 43/34/18
f 22/39/19 46/40/19 45/42/19
f 23/63/20 47/10/20 48/41/20
f 21/37/21 45/42/21 47/10/21
f 24/38/22 48/41/22 46/40/22
f 26/64/23 50/46/23 49/48/23
f 25/44/24 49/48/24 51/2/24
f 28/43/25 52/47/25 50/46/25
f 27/45/26 51/2/26 52/47/26
f 30/50/27 54/52/27 53/54/27
f 29/51/28 53/54/28 55/53/28
f 32/65/29 56/9/29 54/52/29
f 31/49/30 55/53/30 56/9/30
