# Blender v2.81 (sub 16) OBJ File: ''
# www.blender.org
mtllib item.mtl
o Cube
v 0.268015 0.268015 2.096592
v 0.721955 0.721955 0.084718
v 0.268015 -0.268015 2.096592
v 0.721955 -0.721955 0.084718
v -0.268015 0.268015 2.096592
v -0.721955 0.721955 0.084718
v -0.268015 -0.268015 2.096592
v -0.721955 -0.721955 0.084718
v 0.268015 -0.268015 2.244196
v -0.268015 -0.268015 2.244196
v 0.268015 0.268015 2.244196
v -0.268015 0.268015 2.244196
v 0.413104 -0.413104 2.290524
v -0.413104 -0.413104 2.290524
v 0.413104 0.413104 2.290524
v -0.413104 0.413104 2.290524
v 0.413104 -0.413104 2.637863
v -0.413104 -0.413104 2.637863
v 0.413104 0.413104 2.637863
v -0.413104 0.413104 2.637863
v -0.659035 0.659035 -0.008282
v -0.659035 -0.659035 -0.008282
v 0.659035 0.659035 -0.008282
v 0.659035 -0.659035 -0.008282
v 0.284781 -0.284781 2.676843
v -0.284781 -0.284781 2.676843
v 0.284781 0.284781 2.676843
v -0.284781 0.284781 2.676843
vt 0.625000 0.750000
vt 0.625000 1.000000
vt 0.625000 1.000000
vt 0.375000 1.000000
vt 0.375000 0.750000
vt 0.625000 0.000000
vt 0.375000 0.250000
vt 0.375000 0.000000
vt 0.375000 0.000000
vt 0.625000 0.500000
vt 0.375000 0.500000
vt 0.625000 0.250000
vt 0.625000 0.250000
vt 0.625000 0.500000
vt 0.625000 0.500000
vt 0.625000 0.750000
vt 0.625000 0.000000
vt 0.625000 0.250000
vt 0.625000 0.250000
vt 0.625000 0.750000
vt 0.625000 0.000000
vt 0.625000 1.000000
vt 0.625000 0.750000
vt 0.625000 1.000000
vt 0.625000 1.000000
vt 0.625000 0.500000
vt 0.375000 0.500000
vt 0.125000 0.750000
vt 0.125000 0.500000
vt 0.375000 0.250000
vt 0.375000 0.750000
vt 0.875000 0.500000
vt 0.625000 0.750000
vt 0.625000 0.500000
vt 0.625000 0.000000
vt 0.625000 0.250000
vt 0.375000 1.000000
vt 0.875000 0.750000
vt 0.625000 0.000000
vn 0.0000 -1.0000 0.0000
vn 0.0000 -0.9755 0.2201
vn -0.9755 0.0000 0.2201
vn -0.8283 0.0000 -0.5604
vn 0.9755 0.0000 0.2201
vn 0.0000 0.9755 0.2201
vn 0.0000 0.3042 -0.9526
vn -1.0000 0.0000 0.0000
vn 1.0000 0.0000 0.0000
vn 0.0000 1.0000 0.0000
vn 0.3042 0.0000 -0.9526
vn -0.3042 0.0000 -0.9526
vn 0.0000 -0.3042 -0.9526
vn 0.0000 -0.2906 0.9568
vn 0.0000 0.0000 -1.0000
vn 0.8283 0.0000 -0.5604
vn 0.0000 0.8283 -0.5604
vn 0.0000 -0.8283 -0.5604
vn 0.0000 0.0000 1.0000
vn 0.0000 0.2906 0.9568
vn 0.2907 0.0000 0.9568
vn -0.2907 0.0000 0.9568
usemtl Material
s off
f 3/1/1 10/2/1 7/3/1
f 3/1/2 8/4/2 4/5/2
f 7/6/3 6/7/3 8/8/3
f 6/7/4 22/9/4 8/8/4
f 1/10/5 4/5/5 2/11/5
f 5/12/6 2/11/6 6/7/6
f 12/13/7 15/14/7 11/15/7
f 7/6/8 12/13/8 5/12/8
f 1/10/9 9/16/9 3/1/9
f 5/12/10 11/15/10 1/10/10
f 14/17/8 20/18/8 16/19/8
f 11/15/11 13/20/11 9/16/11
f 10/21/12 16/19/12 12/13/12
f 9/16/13 14/22/13 10/2/13
f 17/23/14 26/24/14 18/25/14
f 13/20/1 18/25/1 14/22/1
f 16/19/10 19/26/10 15/14/10
f 15/14/9 17/23/9 13/20/9
f 23/27/15 22/28/15 21/29/15
f 4/5/16 23/27/16 2/11/16
f 2/11/17 21/30/17 6/7/17
f 8/4/18 24/31/18 4/5/18
f 28/32/19 25/33/19 27/34/19
f 20/18/20 27/34/20 19/26/20
f 19/26/21 25/33/21 17/23/21
f 18/35/22 28/36/22 20/18/22
f 3/1/1 9/16/1 10/2/1
f 3/1/2 7/3/2 8/4/2
f 7/6/3 5/12/3 6/7/3
f 6/7/4 21/30/4 22/9/4
f 1/10/5 3/1/5 4/5/5
f 5/12/6 1/10/6 2/11/6
f 12/13/7 16/19/7 15/14/7
f 7/6/8 10/21/8 12/13/8
f 1/10/9 11/15/9 9/16/9
f 5/12/10 12/13/10 11/15/10
f 14/17/8 18/35/8 20/18/8
f 11/15/11 15/14/11 13/20/11
f 10/21/12 14/17/12 16/19/12
f 9/16/13 13/20/13 14/22/13
f 17/23/14 25/33/14 26/24/14
f 13/20/1 17/23/1 18/25/1
f 16/19/10 20/18/10 19/26/10
f 15/14/9 19/26/9 17/23/9
f 23/27/15 24/31/15 22/28/15
f 4/5/16 24/31/16 23/27/16
f 2/11/17 23/27/17 21/30/17
f 8/4/18 22/37/18 24/31/18
f 28/32/19 26/38/19 25/33/19
f 20/18/20 28/36/20 27/34/20
f 19/26/21 27/34/21 25/33/21
f 18/35/22 26/39/22 28/36/22
